<svg width="18" height="18" viewBox="0 0 18 18" fill="none" xmlns="http://www.w3.org/2000/svg">
<g clip-path="url(#clip0_981_1054)">
<path d="M16.6133 11.2625C16.3657 11.2625 16.165 11.4631 16.165 11.7108V15.6911C16.1641 16.4336 15.5626 17.0353 14.8201 17.036H2.24147C1.49896 17.0353 0.897483 16.4336 0.896586 15.6911V4.00904C0.897483 3.26672 1.499 2.66506 2.24147 2.66416H6.22186C6.46945 2.66416 6.67015 2.46346 6.67015 2.21587C6.67015 1.96841 6.46945 1.76758 6.22186 1.76758H2.24147C1.00409 1.76897 0.00138971 2.77166 0 4.00904V15.6913C0.00138971 16.9286 1.00409 17.9313 2.24147 17.9328H14.8201C16.0575 17.9313 17.0602 16.9286 17.0616 15.6913V11.7108C17.0616 11.4631 16.8609 11.2625 16.6133 11.2625Z" fill="black"/>
<path d="M16.8841 0.61431C16.0962 -0.17352 14.8189 -0.17352 14.0311 0.61431L6.03321 8.61217C5.97846 8.66691 5.93883 8.7349 5.91817 8.80951L4.86643 12.6066C4.84521 12.683 4.84466 12.7637 4.86484 12.8405C4.88502 12.9172 4.92521 12.9872 4.98131 13.0433C5.0374 13.0994 5.10739 13.1396 5.18412 13.1598C5.26084 13.18 5.34156 13.1795 5.41801 13.1583L9.21506 12.1064C9.28967 12.0857 9.35766 12.0461 9.4124 11.9914L17.41 3.99337C18.1967 3.20495 18.1967 1.92875 17.41 1.14038L16.8841 0.61431ZM7.00999 8.90357L13.5557 2.35777L15.6667 4.46878L9.12087 11.0146L7.00999 8.90357ZM6.58833 9.74972L8.27481 11.4364L5.94198 12.0828L6.58833 9.74972ZM16.7762 3.35943L16.3007 3.8348L14.1895 1.72361L14.6652 1.2482C15.1028 0.810573 15.8124 0.810573 16.2499 1.2482L16.7762 1.77422C17.2131 2.21239 17.2131 2.92145 16.7762 3.35943Z" fill="black"/>
</g>
<defs>
<clipPath id="clip0_981_1054">
<rect width="18" height="18" fill="white"/>
</clipPath>
</defs>
</svg>
